<mxfile host="app.diagrams.net" modified="2023-10-27T08:32:55.615Z" agent="Mozilla/5.0 (Windows NT 10.0; Win64; x64) AppleWebKit/537.36 (KHTML, like Gecko) Chrome/118.0.0.0 Safari/537.36" etag="3aSqc_5PPuY2My2CmLhP" version="22.0.8" type="github">
  <diagram name="Pagina-1" id="d0BorDgT69ogsbsSQJ4K">
    <mxGraphModel dx="1221" dy="648" grid="1" gridSize="10" guides="1" tooltips="1" connect="1" arrows="1" fold="1" page="1" pageScale="1" pageWidth="1654" pageHeight="1169" math="0" shadow="0">
      <root>
        <mxCell id="0" />
        <mxCell id="1" parent="0" />
        <mxCell id="ulRnp09Q39gZZT8fI7GO-1" value="School A&amp;nbsp;" style="rounded=1;whiteSpace=wrap;html=1;labelPosition=center;verticalLabelPosition=bottom;align=center;verticalAlign=top;" parent="1" vertex="1">
          <mxGeometry x="100" y="250" width="100" height="285" as="geometry" />
        </mxCell>
        <mxCell id="ulRnp09Q39gZZT8fI7GO-60" value="" style="group" parent="1" vertex="1" connectable="0">
          <mxGeometry x="230" y="250" width="50" height="230" as="geometry" />
        </mxCell>
        <mxCell id="ulRnp09Q39gZZT8fI7GO-2" value="Personeel" style="shape=image;verticalLabelPosition=bottom;labelBackgroundColor=default;verticalAlign=top;aspect=fixed;imageAspect=0;image=https://static.vecteezy.com/system/resources/thumbnails/006/877/567/small/work-character-solid-icon-illustration-office-workers-teachers-judges-police-artists-employees-free-vector.jpg;" parent="ulRnp09Q39gZZT8fI7GO-60" vertex="1">
          <mxGeometry y="90" width="50" height="50" as="geometry" />
        </mxCell>
        <mxCell id="ulRnp09Q39gZZT8fI7GO-5" value="leerlingen" style="shape=image;verticalLabelPosition=bottom;labelBackgroundColor=default;verticalAlign=top;aspect=fixed;imageAspect=0;image=https://static.vecteezy.com/system/resources/previews/020/274/235/non_2x/student-icon-for-your-website-design-logo-app-ui-free-vector.jpg;" parent="ulRnp09Q39gZZT8fI7GO-60" vertex="1">
          <mxGeometry y="180" width="50" height="50" as="geometry" />
        </mxCell>
        <mxCell id="ulRnp09Q39gZZT8fI7GO-6" value="beleid" style="shape=image;verticalLabelPosition=bottom;labelBackgroundColor=default;verticalAlign=top;aspect=fixed;imageAspect=0;image=https://static.vecteezy.com/system/resources/previews/024/478/644/original/meeting-table-icon-vector.jpg;" parent="ulRnp09Q39gZZT8fI7GO-60" vertex="1">
          <mxGeometry width="50" height="50" as="geometry" />
        </mxCell>
        <mxCell id="ulRnp09Q39gZZT8fI7GO-67" value="School B" style="rounded=1;whiteSpace=wrap;html=1;labelPosition=center;verticalLabelPosition=bottom;align=center;verticalAlign=top;" parent="1" vertex="1">
          <mxGeometry x="210" y="250" width="100" height="285" as="geometry" />
        </mxCell>
        <mxCell id="ulRnp09Q39gZZT8fI7GO-68" value="" style="group" parent="1" vertex="1" connectable="0">
          <mxGeometry x="125" y="270" width="50" height="230" as="geometry" />
        </mxCell>
        <mxCell id="ulRnp09Q39gZZT8fI7GO-69" value="Personeel" style="shape=image;verticalLabelPosition=bottom;labelBackgroundColor=default;verticalAlign=top;aspect=fixed;imageAspect=0;image=https://static.vecteezy.com/system/resources/thumbnails/006/877/567/small/work-character-solid-icon-illustration-office-workers-teachers-judges-police-artists-employees-free-vector.jpg;" parent="ulRnp09Q39gZZT8fI7GO-68" vertex="1">
          <mxGeometry y="90" width="50" height="50" as="geometry" />
        </mxCell>
        <mxCell id="ulRnp09Q39gZZT8fI7GO-70" value="leerlingen" style="shape=image;verticalLabelPosition=bottom;labelBackgroundColor=default;verticalAlign=top;aspect=fixed;imageAspect=0;image=https://static.vecteezy.com/system/resources/previews/020/274/235/non_2x/student-icon-for-your-website-design-logo-app-ui-free-vector.jpg;" parent="ulRnp09Q39gZZT8fI7GO-68" vertex="1">
          <mxGeometry y="180" width="50" height="50" as="geometry" />
        </mxCell>
        <mxCell id="ulRnp09Q39gZZT8fI7GO-71" value="beleid" style="shape=image;verticalLabelPosition=bottom;labelBackgroundColor=default;verticalAlign=top;aspect=fixed;imageAspect=0;image=https://static.vecteezy.com/system/resources/previews/024/478/644/original/meeting-table-icon-vector.jpg;" parent="ulRnp09Q39gZZT8fI7GO-68" vertex="1">
          <mxGeometry width="50" height="50" as="geometry" />
        </mxCell>
        <mxCell id="ulRnp09Q39gZZT8fI7GO-73" value="" style="group" parent="1" vertex="1" connectable="0">
          <mxGeometry x="235" y="270" width="50" height="230" as="geometry" />
        </mxCell>
        <mxCell id="ulRnp09Q39gZZT8fI7GO-74" value="Personeel" style="shape=image;verticalLabelPosition=bottom;labelBackgroundColor=default;verticalAlign=top;aspect=fixed;imageAspect=0;image=https://static.vecteezy.com/system/resources/thumbnails/006/877/567/small/work-character-solid-icon-illustration-office-workers-teachers-judges-police-artists-employees-free-vector.jpg;" parent="ulRnp09Q39gZZT8fI7GO-73" vertex="1">
          <mxGeometry y="90" width="50" height="50" as="geometry" />
        </mxCell>
        <mxCell id="ulRnp09Q39gZZT8fI7GO-75" value="leerlingen" style="shape=image;verticalLabelPosition=bottom;labelBackgroundColor=default;verticalAlign=top;aspect=fixed;imageAspect=0;image=https://static.vecteezy.com/system/resources/previews/020/274/235/non_2x/student-icon-for-your-website-design-logo-app-ui-free-vector.jpg;" parent="ulRnp09Q39gZZT8fI7GO-73" vertex="1">
          <mxGeometry y="180" width="50" height="50" as="geometry" />
        </mxCell>
        <mxCell id="ulRnp09Q39gZZT8fI7GO-76" value="beleid" style="shape=image;verticalLabelPosition=bottom;labelBackgroundColor=default;verticalAlign=top;aspect=fixed;imageAspect=0;image=https://static.vecteezy.com/system/resources/previews/024/478/644/original/meeting-table-icon-vector.jpg;" parent="ulRnp09Q39gZZT8fI7GO-73" vertex="1">
          <mxGeometry width="50" height="50" as="geometry" />
        </mxCell>
        <mxCell id="ulRnp09Q39gZZT8fI7GO-77" value="School C" style="rounded=1;whiteSpace=wrap;html=1;labelPosition=center;verticalLabelPosition=bottom;align=center;verticalAlign=top;" parent="1" vertex="1">
          <mxGeometry x="320" y="250" width="100" height="285" as="geometry" />
        </mxCell>
        <mxCell id="ulRnp09Q39gZZT8fI7GO-78" value="" style="group" parent="1" vertex="1" connectable="0">
          <mxGeometry x="345" y="270" width="50" height="230" as="geometry" />
        </mxCell>
        <mxCell id="ulRnp09Q39gZZT8fI7GO-79" value="Personeel" style="shape=image;verticalLabelPosition=bottom;labelBackgroundColor=default;verticalAlign=top;aspect=fixed;imageAspect=0;image=https://static.vecteezy.com/system/resources/thumbnails/006/877/567/small/work-character-solid-icon-illustration-office-workers-teachers-judges-police-artists-employees-free-vector.jpg;" parent="ulRnp09Q39gZZT8fI7GO-78" vertex="1">
          <mxGeometry y="90" width="50" height="50" as="geometry" />
        </mxCell>
        <mxCell id="ulRnp09Q39gZZT8fI7GO-80" value="leerlingen" style="shape=image;verticalLabelPosition=bottom;labelBackgroundColor=default;verticalAlign=top;aspect=fixed;imageAspect=0;image=https://static.vecteezy.com/system/resources/previews/020/274/235/non_2x/student-icon-for-your-website-design-logo-app-ui-free-vector.jpg;" parent="ulRnp09Q39gZZT8fI7GO-78" vertex="1">
          <mxGeometry y="180" width="50" height="50" as="geometry" />
        </mxCell>
        <mxCell id="ulRnp09Q39gZZT8fI7GO-81" value="beleid" style="shape=image;verticalLabelPosition=bottom;labelBackgroundColor=default;verticalAlign=top;aspect=fixed;imageAspect=0;image=https://static.vecteezy.com/system/resources/previews/024/478/644/original/meeting-table-icon-vector.jpg;" parent="ulRnp09Q39gZZT8fI7GO-78" vertex="1">
          <mxGeometry width="50" height="50" as="geometry" />
        </mxCell>
        <mxCell id="ulRnp09Q39gZZT8fI7GO-16" value="Segment regio 1" style="rounded=1;whiteSpace=wrap;html=1;fillColor=none;labelPosition=center;verticalLabelPosition=top;align=center;verticalAlign=bottom;strokeColor=#82b366;strokeWidth=3;" parent="1" vertex="1">
          <mxGeometry x="80" y="130" width="360" height="220" as="geometry" />
        </mxCell>
        <mxCell id="ulRnp09Q39gZZT8fI7GO-82" value="Regio-team" style="shape=image;verticalLabelPosition=bottom;labelBackgroundColor=default;verticalAlign=top;aspect=fixed;imageAspect=0;image=https://static.vecteezy.com/system/resources/previews/000/649/142/original/team-icon-symbol-sign-vector.jpg;" parent="1" vertex="1">
          <mxGeometry x="235" y="160" width="50" height="50" as="geometry" />
        </mxCell>
        <mxCell id="ulRnp09Q39gZZT8fI7GO-83" value="School A&amp;nbsp;" style="rounded=1;whiteSpace=wrap;html=1;labelPosition=center;verticalLabelPosition=bottom;align=center;verticalAlign=top;" parent="1" vertex="1">
          <mxGeometry x="487" y="250" width="100" height="285" as="geometry" />
        </mxCell>
        <mxCell id="ulRnp09Q39gZZT8fI7GO-84" value="" style="group" parent="1" vertex="1" connectable="0">
          <mxGeometry x="617" y="250" width="50" height="230" as="geometry" />
        </mxCell>
        <mxCell id="ulRnp09Q39gZZT8fI7GO-85" value="Personeel" style="shape=image;verticalLabelPosition=bottom;labelBackgroundColor=default;verticalAlign=top;aspect=fixed;imageAspect=0;image=https://static.vecteezy.com/system/resources/thumbnails/006/877/567/small/work-character-solid-icon-illustration-office-workers-teachers-judges-police-artists-employees-free-vector.jpg;" parent="ulRnp09Q39gZZT8fI7GO-84" vertex="1">
          <mxGeometry y="90" width="50" height="50" as="geometry" />
        </mxCell>
        <mxCell id="ulRnp09Q39gZZT8fI7GO-86" value="leerlingen" style="shape=image;verticalLabelPosition=bottom;labelBackgroundColor=default;verticalAlign=top;aspect=fixed;imageAspect=0;image=https://static.vecteezy.com/system/resources/previews/020/274/235/non_2x/student-icon-for-your-website-design-logo-app-ui-free-vector.jpg;" parent="ulRnp09Q39gZZT8fI7GO-84" vertex="1">
          <mxGeometry y="180" width="50" height="50" as="geometry" />
        </mxCell>
        <mxCell id="ulRnp09Q39gZZT8fI7GO-87" value="beleid" style="shape=image;verticalLabelPosition=bottom;labelBackgroundColor=default;verticalAlign=top;aspect=fixed;imageAspect=0;image=https://static.vecteezy.com/system/resources/previews/024/478/644/original/meeting-table-icon-vector.jpg;" parent="ulRnp09Q39gZZT8fI7GO-84" vertex="1">
          <mxGeometry width="50" height="50" as="geometry" />
        </mxCell>
        <mxCell id="ulRnp09Q39gZZT8fI7GO-88" value="School B" style="rounded=1;whiteSpace=wrap;html=1;labelPosition=center;verticalLabelPosition=bottom;align=center;verticalAlign=top;" parent="1" vertex="1">
          <mxGeometry x="597" y="250" width="100" height="285" as="geometry" />
        </mxCell>
        <mxCell id="ulRnp09Q39gZZT8fI7GO-89" value="" style="group" parent="1" vertex="1" connectable="0">
          <mxGeometry x="512" y="270" width="50" height="230" as="geometry" />
        </mxCell>
        <mxCell id="ulRnp09Q39gZZT8fI7GO-90" value="Personeel" style="shape=image;verticalLabelPosition=bottom;labelBackgroundColor=default;verticalAlign=top;aspect=fixed;imageAspect=0;image=https://static.vecteezy.com/system/resources/thumbnails/006/877/567/small/work-character-solid-icon-illustration-office-workers-teachers-judges-police-artists-employees-free-vector.jpg;" parent="ulRnp09Q39gZZT8fI7GO-89" vertex="1">
          <mxGeometry y="90" width="50" height="50" as="geometry" />
        </mxCell>
        <mxCell id="ulRnp09Q39gZZT8fI7GO-91" value="leerlingen" style="shape=image;verticalLabelPosition=bottom;labelBackgroundColor=default;verticalAlign=top;aspect=fixed;imageAspect=0;image=https://static.vecteezy.com/system/resources/previews/020/274/235/non_2x/student-icon-for-your-website-design-logo-app-ui-free-vector.jpg;" parent="ulRnp09Q39gZZT8fI7GO-89" vertex="1">
          <mxGeometry y="180" width="50" height="50" as="geometry" />
        </mxCell>
        <mxCell id="ulRnp09Q39gZZT8fI7GO-92" value="beleid" style="shape=image;verticalLabelPosition=bottom;labelBackgroundColor=default;verticalAlign=top;aspect=fixed;imageAspect=0;image=https://static.vecteezy.com/system/resources/previews/024/478/644/original/meeting-table-icon-vector.jpg;" parent="ulRnp09Q39gZZT8fI7GO-89" vertex="1">
          <mxGeometry width="50" height="50" as="geometry" />
        </mxCell>
        <mxCell id="ulRnp09Q39gZZT8fI7GO-93" value="" style="group" parent="1" vertex="1" connectable="0">
          <mxGeometry x="622" y="270" width="50" height="230" as="geometry" />
        </mxCell>
        <mxCell id="ulRnp09Q39gZZT8fI7GO-94" value="Personeel" style="shape=image;verticalLabelPosition=bottom;labelBackgroundColor=default;verticalAlign=top;aspect=fixed;imageAspect=0;image=https://static.vecteezy.com/system/resources/thumbnails/006/877/567/small/work-character-solid-icon-illustration-office-workers-teachers-judges-police-artists-employees-free-vector.jpg;" parent="ulRnp09Q39gZZT8fI7GO-93" vertex="1">
          <mxGeometry y="90" width="50" height="50" as="geometry" />
        </mxCell>
        <mxCell id="ulRnp09Q39gZZT8fI7GO-95" value="leerlingen" style="shape=image;verticalLabelPosition=bottom;labelBackgroundColor=default;verticalAlign=top;aspect=fixed;imageAspect=0;image=https://static.vecteezy.com/system/resources/previews/020/274/235/non_2x/student-icon-for-your-website-design-logo-app-ui-free-vector.jpg;" parent="ulRnp09Q39gZZT8fI7GO-93" vertex="1">
          <mxGeometry y="180" width="50" height="50" as="geometry" />
        </mxCell>
        <mxCell id="ulRnp09Q39gZZT8fI7GO-96" value="beleid" style="shape=image;verticalLabelPosition=bottom;labelBackgroundColor=default;verticalAlign=top;aspect=fixed;imageAspect=0;image=https://static.vecteezy.com/system/resources/previews/024/478/644/original/meeting-table-icon-vector.jpg;" parent="ulRnp09Q39gZZT8fI7GO-93" vertex="1">
          <mxGeometry width="50" height="50" as="geometry" />
        </mxCell>
        <mxCell id="ulRnp09Q39gZZT8fI7GO-97" value="School C" style="rounded=1;whiteSpace=wrap;html=1;labelPosition=center;verticalLabelPosition=bottom;align=center;verticalAlign=top;" parent="1" vertex="1">
          <mxGeometry x="707" y="250" width="100" height="285" as="geometry" />
        </mxCell>
        <mxCell id="ulRnp09Q39gZZT8fI7GO-98" value="" style="group" parent="1" vertex="1" connectable="0">
          <mxGeometry x="732" y="270" width="50" height="230" as="geometry" />
        </mxCell>
        <mxCell id="ulRnp09Q39gZZT8fI7GO-99" value="Personeel" style="shape=image;verticalLabelPosition=bottom;labelBackgroundColor=default;verticalAlign=top;aspect=fixed;imageAspect=0;image=https://static.vecteezy.com/system/resources/thumbnails/006/877/567/small/work-character-solid-icon-illustration-office-workers-teachers-judges-police-artists-employees-free-vector.jpg;" parent="ulRnp09Q39gZZT8fI7GO-98" vertex="1">
          <mxGeometry y="90" width="50" height="50" as="geometry" />
        </mxCell>
        <mxCell id="ulRnp09Q39gZZT8fI7GO-100" value="leerlingen" style="shape=image;verticalLabelPosition=bottom;labelBackgroundColor=default;verticalAlign=top;aspect=fixed;imageAspect=0;image=https://static.vecteezy.com/system/resources/previews/020/274/235/non_2x/student-icon-for-your-website-design-logo-app-ui-free-vector.jpg;" parent="ulRnp09Q39gZZT8fI7GO-98" vertex="1">
          <mxGeometry y="180" width="50" height="50" as="geometry" />
        </mxCell>
        <mxCell id="ulRnp09Q39gZZT8fI7GO-101" value="beleid" style="shape=image;verticalLabelPosition=bottom;labelBackgroundColor=default;verticalAlign=top;aspect=fixed;imageAspect=0;image=https://static.vecteezy.com/system/resources/previews/024/478/644/original/meeting-table-icon-vector.jpg;" parent="ulRnp09Q39gZZT8fI7GO-98" vertex="1">
          <mxGeometry width="50" height="50" as="geometry" />
        </mxCell>
        <mxCell id="ulRnp09Q39gZZT8fI7GO-102" value="Segment regio 2" style="rounded=1;whiteSpace=wrap;html=1;fillColor=none;labelPosition=center;verticalLabelPosition=top;align=center;verticalAlign=bottom;strokeColor=#82b366;strokeWidth=3;" parent="1" vertex="1">
          <mxGeometry x="467" y="130" width="360" height="220" as="geometry" />
        </mxCell>
        <mxCell id="ulRnp09Q39gZZT8fI7GO-103" value="Regio-team" style="shape=image;verticalLabelPosition=bottom;labelBackgroundColor=default;verticalAlign=top;aspect=fixed;imageAspect=0;image=https://static.vecteezy.com/system/resources/previews/000/649/142/original/team-icon-symbol-sign-vector.jpg;" parent="1" vertex="1">
          <mxGeometry x="622" y="150" width="50" height="50" as="geometry" />
        </mxCell>
        <mxCell id="ulRnp09Q39gZZT8fI7GO-104" value="Segment KOBA" style="rounded=1;whiteSpace=wrap;html=1;labelPosition=center;verticalLabelPosition=top;align=center;verticalAlign=bottom;fillColor=none;strokeColor=#d79b00;strokeWidth=3;" parent="1" vertex="1">
          <mxGeometry x="65" y="30" width="780" height="210" as="geometry" />
        </mxCell>
        <mxCell id="ulRnp09Q39gZZT8fI7GO-106" value="KOBA-team" style="shape=image;verticalLabelPosition=bottom;labelBackgroundColor=default;verticalAlign=top;aspect=fixed;imageAspect=0;image=https://static.vecteezy.com/system/resources/previews/000/649/142/original/team-icon-symbol-sign-vector.jpg;" parent="1" vertex="1">
          <mxGeometry x="430" y="40" width="50" height="50" as="geometry" />
        </mxCell>
      </root>
    </mxGraphModel>
  </diagram>
</mxfile>
